<?xml version="1.0" encoding="UTF-8" standalone="no"?>
<!-- Created with Inkscape (http://www.inkscape.org/) -->

<svg
   xmlns:dc="http://purl.org/dc/elements/1.1/"
   xmlns:cc="http://creativecommons.org/ns#"
   xmlns:rdf="http://www.w3.org/1999/02/22-rdf-syntax-ns#"
   xmlns:svg="http://www.w3.org/2000/svg"
   xmlns="http://www.w3.org/2000/svg"
   xmlns:sodipodi="http://sodipodi.sourceforge.net/DTD/sodipodi-0.dtd"
   xmlns:inkscape="http://www.inkscape.org/namespaces/inkscape"
   width="40mm"
   height="20mm"
   viewBox="0 0 40 20"
   version="1.1"
   id="svg8"
   inkscape:version="0.92.0 r"
   sodipodi:docname="boutons.svg">
  <defs
     id="defs2" />
  <sodipodi:namedview
     id="base"
     pagecolor="#000000"
     bordercolor="#666666"
     borderopacity="1.0"
     inkscape:pageopacity="0"
     inkscape:pageshadow="2"
     inkscape:zoom="1.979899"
     inkscape:cx="70.727441"
     inkscape:cy="51.921331"
     inkscape:document-units="mm"
     inkscape:current-layer="layer1"
     showgrid="false"
     units="mm"
     inkscape:pagecheckerboard="false"
     inkscape:window-width="1920"
     inkscape:window-height="1061"
     inkscape:window-x="0"
     inkscape:window-y="0"
     inkscape:window-maximized="0" />
  <metadata
     id="metadata5">
    <rdf:RDF>
      <cc:Work
         rdf:about="">
        <dc:format>image/svg+xml</dc:format>
        <dc:type
           rdf:resource="http://purl.org/dc/dcmitype/StillImage" />
        <dc:title></dc:title>
      </cc:Work>
    </rdf:RDF>
  </metadata>
  <g
     inkscape:label="Calque 1"
     inkscape:groupmode="layer"
     id="layer1"
     transform="translate(0,-276.99999)">
    <path
       style="fill:none;fill-rule:evenodd;stroke:#fffbfb;stroke-width:0.26458332px;stroke-linecap:butt;stroke-linejoin:miter;stroke-opacity:1"
       d="m 6.2808337,294.19366 -4.0090428,-4.54358 c 0,0 0.8018087,-3.4745 1.202713,-4.81085 0.4009041,-1.33635 3.8754079,-4.81085 6.2808336,-5.21176 2.4054265,-0.4009 8.9535295,-1.73725 10.4235125,-1.73725 1.469982,0 7.61718,-0.4009 8.552625,-0.26727 0.935443,0.13364 4.276313,1.46998 5.612659,2.27179 1.336347,0.80181 3.073599,2.13816 3.073599,2.6727 0,0.53454 -0.267269,2.27179 -0.267269,4.27631 0,2.00452 1.870887,2.80633 -1.737251,4.27631 -3.608139,1.46999 -4.677217,2.27179 -6.548105,2.6727 -1.870887,0.4009 -3.073598,1.20271 -5.879929,1.46998 -2.806329,0.26727 -4.009042,0.53454 -6.280833,0.53454 -2.271791,0 -9.8889733,-1.46998 -9.8889733,-1.46998 z"
       id="path4485"
       inkscape:connector-curvature="0" />
  </g>
</svg>
